<mxfile host="Electron" modified="2024-05-15T18:25:11.003Z" agent="Mozilla/5.0 (Windows NT 10.0; Win64; x64) AppleWebKit/537.36 (KHTML, like Gecko) draw.io/24.4.0 Chrome/120.0.6099.109 Electron/28.1.0 Safari/537.36" etag="DDoejKYEHPBI_fi1MgH8" version="24.4.0" type="device">
  <diagram name="Page-1" id="M-7XmRVQUcAZlcDIPF9i">
    <mxGraphModel dx="1098" dy="988" grid="1" gridSize="10" guides="1" tooltips="1" connect="1" arrows="1" fold="1" page="1" pageScale="1" pageWidth="850" pageHeight="1100" math="0" shadow="0">
      <root>
        <mxCell id="0" />
        <mxCell id="1" parent="0" />
        <mxCell id="Z_C3GJ4FYXmf0nMAyV03-17" style="edgeStyle=orthogonalEdgeStyle;rounded=0;orthogonalLoop=1;jettySize=auto;html=1;" edge="1" parent="1" source="Z_C3GJ4FYXmf0nMAyV03-2" target="Z_C3GJ4FYXmf0nMAyV03-4">
          <mxGeometry relative="1" as="geometry" />
        </mxCell>
        <mxCell id="Z_C3GJ4FYXmf0nMAyV03-38" style="edgeStyle=orthogonalEdgeStyle;rounded=0;orthogonalLoop=1;jettySize=auto;html=1;entryX=0;entryY=0.5;entryDx=0;entryDy=0;" edge="1" parent="1" source="Z_C3GJ4FYXmf0nMAyV03-2" target="Z_C3GJ4FYXmf0nMAyV03-37">
          <mxGeometry relative="1" as="geometry">
            <Array as="points">
              <mxPoint x="140" y="280" />
              <mxPoint x="50" y="280" />
              <mxPoint x="50" y="545" />
            </Array>
          </mxGeometry>
        </mxCell>
        <mxCell id="Z_C3GJ4FYXmf0nMAyV03-41" style="edgeStyle=orthogonalEdgeStyle;rounded=0;orthogonalLoop=1;jettySize=auto;html=1;entryX=0.5;entryY=0;entryDx=0;entryDy=0;" edge="1" parent="1" source="Z_C3GJ4FYXmf0nMAyV03-2" target="Z_C3GJ4FYXmf0nMAyV03-40">
          <mxGeometry relative="1" as="geometry">
            <Array as="points">
              <mxPoint x="20" y="100" />
              <mxPoint x="20" y="620" />
              <mxPoint x="175" y="620" />
            </Array>
          </mxGeometry>
        </mxCell>
        <mxCell id="Z_C3GJ4FYXmf0nMAyV03-2" value="1. Arithmethic Operatios&lt;div&gt;2. Encryptiona and dycription&lt;/div&gt;&lt;div&gt;3. Grop Members&lt;/div&gt;&lt;div&gt;0. Exit&lt;/div&gt;" style="rounded=0;whiteSpace=wrap;html=1;align=left;" vertex="1" parent="1">
          <mxGeometry x="90" y="60" width="180" height="80" as="geometry" />
        </mxCell>
        <mxCell id="Z_C3GJ4FYXmf0nMAyV03-3" value="Main Menu" style="text;strokeColor=none;align=center;fillColor=none;html=1;verticalAlign=middle;whiteSpace=wrap;rounded=0;" vertex="1" parent="1">
          <mxGeometry x="135" y="20" width="90" height="30" as="geometry" />
        </mxCell>
        <mxCell id="Z_C3GJ4FYXmf0nMAyV03-32" style="edgeStyle=orthogonalEdgeStyle;rounded=0;orthogonalLoop=1;jettySize=auto;html=1;" edge="1" parent="1" source="Z_C3GJ4FYXmf0nMAyV03-4">
          <mxGeometry relative="1" as="geometry">
            <mxPoint x="520" y="20" as="targetPoint" />
          </mxGeometry>
        </mxCell>
        <mxCell id="Z_C3GJ4FYXmf0nMAyV03-4" value="1. Addition&lt;div&gt;2. Substraction&lt;/div&gt;&lt;div&gt;3. Multiplication&lt;/div&gt;&lt;div&gt;4. Division&lt;/div&gt;&lt;div&gt;5. Multiplication by 2&lt;/div&gt;&lt;div&gt;6. Division by 2&lt;/div&gt;&lt;div&gt;0. Back to main menu&lt;/div&gt;" style="rounded=0;whiteSpace=wrap;html=1;align=left;" vertex="1" parent="1">
          <mxGeometry x="310" y="140" width="180" height="130" as="geometry" />
        </mxCell>
        <mxCell id="Z_C3GJ4FYXmf0nMAyV03-5" value="1." style="text;strokeColor=none;align=center;fillColor=none;html=1;verticalAlign=middle;whiteSpace=wrap;rounded=0;" vertex="1" parent="1">
          <mxGeometry x="260" y="120" width="90" height="30" as="geometry" />
        </mxCell>
        <mxCell id="Z_C3GJ4FYXmf0nMAyV03-10" value="&lt;ul&gt;&lt;li&gt;Input String&lt;/li&gt;&lt;li&gt;Encrypt the string character by character then display&lt;/li&gt;&lt;li&gt;Then dycrypt thestring character by character then again display&lt;/li&gt;&lt;li&gt;Back to main menu&lt;/li&gt;&lt;/ul&gt;" style="rounded=0;whiteSpace=wrap;html=1;align=left;" vertex="1" parent="1">
          <mxGeometry x="530" y="140" width="290" height="90" as="geometry" />
        </mxCell>
        <mxCell id="Z_C3GJ4FYXmf0nMAyV03-12" style="edgeStyle=orthogonalEdgeStyle;rounded=0;orthogonalLoop=1;jettySize=auto;html=1;entryX=0.555;entryY=-0.011;entryDx=0;entryDy=0;entryPerimeter=0;" edge="1" parent="1" target="Z_C3GJ4FYXmf0nMAyV03-10">
          <mxGeometry relative="1" as="geometry">
            <mxPoint x="270" y="80.99" as="sourcePoint" />
            <mxPoint x="688" y="130" as="targetPoint" />
            <Array as="points">
              <mxPoint x="270" y="70" />
              <mxPoint x="691" y="70" />
            </Array>
          </mxGeometry>
        </mxCell>
        <mxCell id="Z_C3GJ4FYXmf0nMAyV03-13" value="2." style="text;strokeColor=none;align=center;fillColor=none;html=1;verticalAlign=middle;whiteSpace=wrap;rounded=0;" vertex="1" parent="1">
          <mxGeometry x="320" y="40" width="90" height="30" as="geometry" />
        </mxCell>
        <mxCell id="Z_C3GJ4FYXmf0nMAyV03-15" style="edgeStyle=orthogonalEdgeStyle;rounded=0;orthogonalLoop=1;jettySize=auto;html=1;entryX=0.839;entryY=-0.05;entryDx=0;entryDy=0;entryPerimeter=0;" edge="1" parent="1" source="Z_C3GJ4FYXmf0nMAyV03-10" target="Z_C3GJ4FYXmf0nMAyV03-2">
          <mxGeometry relative="1" as="geometry">
            <Array as="points">
              <mxPoint x="675" y="20" />
              <mxPoint x="241" y="20" />
            </Array>
          </mxGeometry>
        </mxCell>
        <mxCell id="Z_C3GJ4FYXmf0nMAyV03-27" style="edgeStyle=orthogonalEdgeStyle;rounded=0;orthogonalLoop=1;jettySize=auto;html=1;" edge="1" parent="1" source="Z_C3GJ4FYXmf0nMAyV03-20">
          <mxGeometry relative="1" as="geometry">
            <mxPoint x="510" y="20" as="targetPoint" />
          </mxGeometry>
        </mxCell>
        <mxCell id="Z_C3GJ4FYXmf0nMAyV03-20" value="&lt;ul&gt;&lt;li&gt;Input Two numbers&lt;/li&gt;&lt;li&gt;Perform calculations and display result&lt;/li&gt;&lt;li&gt;Back to main menu&lt;/li&gt;&lt;/ul&gt;" style="rounded=0;whiteSpace=wrap;html=1;align=left;" vertex="1" parent="1">
          <mxGeometry x="380" y="330" width="260" height="90" as="geometry" />
        </mxCell>
        <mxCell id="Z_C3GJ4FYXmf0nMAyV03-22" style="edgeStyle=orthogonalEdgeStyle;rounded=0;orthogonalLoop=1;jettySize=auto;html=1;entryX=0.403;entryY=0.011;entryDx=0;entryDy=0;entryPerimeter=0;" edge="1" parent="1" source="Z_C3GJ4FYXmf0nMAyV03-4" target="Z_C3GJ4FYXmf0nMAyV03-20">
          <mxGeometry relative="1" as="geometry">
            <Array as="points">
              <mxPoint x="400" y="300" />
              <mxPoint x="485" y="300" />
            </Array>
          </mxGeometry>
        </mxCell>
        <mxCell id="Z_C3GJ4FYXmf0nMAyV03-30" style="edgeStyle=orthogonalEdgeStyle;rounded=0;orthogonalLoop=1;jettySize=auto;html=1;" edge="1" parent="1" source="Z_C3GJ4FYXmf0nMAyV03-24">
          <mxGeometry relative="1" as="geometry">
            <mxPoint x="280" y="20" as="targetPoint" />
          </mxGeometry>
        </mxCell>
        <mxCell id="Z_C3GJ4FYXmf0nMAyV03-24" value="&lt;ul&gt;&lt;li&gt;Input One number&lt;/li&gt;&lt;li&gt;Perform calculations and display result&lt;/li&gt;&lt;li&gt;Back to main menu&lt;/li&gt;&lt;/ul&gt;" style="rounded=0;whiteSpace=wrap;html=1;align=left;" vertex="1" parent="1">
          <mxGeometry x="110" y="330" width="260" height="90" as="geometry" />
        </mxCell>
        <mxCell id="Z_C3GJ4FYXmf0nMAyV03-25" style="edgeStyle=orthogonalEdgeStyle;rounded=0;orthogonalLoop=1;jettySize=auto;html=1;entryX=0.65;entryY=-0.044;entryDx=0;entryDy=0;entryPerimeter=0;" edge="1" parent="1" source="Z_C3GJ4FYXmf0nMAyV03-4" target="Z_C3GJ4FYXmf0nMAyV03-24">
          <mxGeometry relative="1" as="geometry" />
        </mxCell>
        <mxCell id="Z_C3GJ4FYXmf0nMAyV03-33" value="1. 2. 3. 4&amp;nbsp;" style="text;strokeColor=none;align=center;fillColor=none;html=1;verticalAlign=middle;whiteSpace=wrap;rounded=0;" vertex="1" parent="1">
          <mxGeometry x="400" y="270" width="90" height="30" as="geometry" />
        </mxCell>
        <mxCell id="Z_C3GJ4FYXmf0nMAyV03-34" value="5. 6." style="text;strokeColor=none;align=center;fillColor=none;html=1;verticalAlign=middle;whiteSpace=wrap;rounded=0;" vertex="1" parent="1">
          <mxGeometry x="280" y="270" width="90" height="30" as="geometry" />
        </mxCell>
        <mxCell id="Z_C3GJ4FYXmf0nMAyV03-39" style="edgeStyle=orthogonalEdgeStyle;rounded=0;orthogonalLoop=1;jettySize=auto;html=1;" edge="1" parent="1" source="Z_C3GJ4FYXmf0nMAyV03-37">
          <mxGeometry relative="1" as="geometry">
            <mxPoint x="650" y="20" as="targetPoint" />
          </mxGeometry>
        </mxCell>
        <mxCell id="Z_C3GJ4FYXmf0nMAyV03-37" value="&lt;ul&gt;&lt;li&gt;Diisplay Group Mebers name&amp;nbsp;&lt;/li&gt;&lt;li&gt;Back to main meu&lt;/li&gt;&lt;/ul&gt;" style="rounded=0;whiteSpace=wrap;html=1;align=left;" vertex="1" parent="1">
          <mxGeometry x="70" y="500" width="290" height="90" as="geometry" />
        </mxCell>
        <mxCell id="Z_C3GJ4FYXmf0nMAyV03-40" value="Exit the program by displaying the thanku message" style="ellipse;whiteSpace=wrap;html=1;" vertex="1" parent="1">
          <mxGeometry x="80" y="690" width="190" height="120" as="geometry" />
        </mxCell>
      </root>
    </mxGraphModel>
  </diagram>
</mxfile>
